<mxfile host="Electron" modified="2023-04-23T11:15:44.879Z" agent="Mozilla/5.0 (Macintosh; Intel Mac OS X 10_15_7) AppleWebKit/537.36 (KHTML, like Gecko) draw.io/21.1.2 Chrome/106.0.5249.199 Electron/21.4.3 Safari/537.36" etag="LsLe2uR3mxeyf1FEej83" version="21.1.2" type="device">
  <diagram name="Page-1" id="Scz1jqrEWE_x5ZDHityA">
    <mxGraphModel dx="2054" dy="613" grid="1" gridSize="10" guides="1" tooltips="1" connect="1" arrows="1" fold="1" page="1" pageScale="1" pageWidth="1100" pageHeight="850" math="0" shadow="0">
      <root>
        <mxCell id="0" />
        <mxCell id="1" parent="0" />
        <mxCell id="XdBd_PdMpTgLBT3q3rix-1" value="1.1" style="swimlane;fontStyle=0;childLayout=stackLayout;horizontal=1;startSize=26;fillColor=none;horizontalStack=0;resizeParent=1;resizeParentMax=0;resizeLast=0;collapsible=1;marginBottom=0;html=1;rounded=1;" parent="1" vertex="1">
          <mxGeometry x="90" y="310" width="150" height="76" as="geometry" />
        </mxCell>
        <mxCell id="XdBd_PdMpTgLBT3q3rix-2" value="Register&amp;nbsp;&lt;br&gt;an account" style="text;html=1;align=center;verticalAlign=middle;resizable=0;points=[];autosize=1;strokeColor=none;fillColor=none;fontSize=14;" parent="XdBd_PdMpTgLBT3q3rix-1" vertex="1">
          <mxGeometry y="26" width="150" height="50" as="geometry" />
        </mxCell>
        <mxCell id="M-paZG-Tj1EJP7v74Uxz-2" value="1.2" style="swimlane;fontStyle=0;childLayout=stackLayout;horizontal=1;startSize=26;fillColor=none;horizontalStack=0;resizeParent=1;resizeParentMax=0;resizeLast=0;collapsible=1;marginBottom=0;html=1;rounded=1;" parent="1" vertex="1">
          <mxGeometry x="450" y="110" width="150" height="76" as="geometry" />
        </mxCell>
        <mxCell id="M-paZG-Tj1EJP7v74Uxz-3" value="Identify&lt;br&gt;&amp;nbsp;the account&lt;span style=&quot;font-size: medium; text-align: start;&quot;&gt;&lt;/span&gt;" style="text;html=1;align=center;verticalAlign=middle;resizable=0;points=[];autosize=1;strokeColor=none;fillColor=none;fontSize=14;" parent="M-paZG-Tj1EJP7v74Uxz-2" vertex="1">
          <mxGeometry y="26" width="150" height="50" as="geometry" />
        </mxCell>
        <mxCell id="M-paZG-Tj1EJP7v74Uxz-4" value="1.3" style="swimlane;fontStyle=0;childLayout=stackLayout;horizontal=1;startSize=26;fillColor=none;horizontalStack=0;resizeParent=1;resizeParentMax=0;resizeLast=0;collapsible=1;marginBottom=0;html=1;rounded=1;" parent="1" vertex="1">
          <mxGeometry x="800" y="302" width="150" height="76" as="geometry" />
        </mxCell>
        <mxCell id="M-paZG-Tj1EJP7v74Uxz-5" value="Manage &lt;br&gt;the account" style="text;html=1;align=center;verticalAlign=middle;resizable=0;points=[];autosize=1;strokeColor=none;fillColor=none;fontSize=14;" parent="M-paZG-Tj1EJP7v74Uxz-4" vertex="1">
          <mxGeometry y="26" width="150" height="50" as="geometry" />
        </mxCell>
        <mxCell id="M-paZG-Tj1EJP7v74Uxz-8" value="Driver" style="rounded=0;whiteSpace=wrap;html=1;" parent="1" vertex="1">
          <mxGeometry x="465" y="310" width="120" height="60" as="geometry" />
        </mxCell>
        <mxCell id="M-paZG-Tj1EJP7v74Uxz-9" value="Passenger" style="rounded=0;whiteSpace=wrap;html=1;" parent="1" vertex="1">
          <mxGeometry x="465" y="395" width="120" height="60" as="geometry" />
        </mxCell>
        <mxCell id="M-paZG-Tj1EJP7v74Uxz-10" value="" style="endArrow=classic;html=1;rounded=0;exitX=1;exitY=1;exitDx=0;exitDy=0;" parent="1" source="M-paZG-Tj1EJP7v74Uxz-11" edge="1">
          <mxGeometry width="50" height="50" relative="1" as="geometry">
            <mxPoint x="460" y="340" as="sourcePoint" />
            <mxPoint x="240" y="326" as="targetPoint" />
          </mxGeometry>
        </mxCell>
        <mxCell id="M-paZG-Tj1EJP7v74Uxz-11" value="Account Registration Information" style="text;whiteSpace=wrap;html=1;rotation=0;" parent="1" vertex="1">
          <mxGeometry x="256" y="299" width="209" height="27" as="geometry" />
        </mxCell>
        <mxCell id="M-paZG-Tj1EJP7v74Uxz-14" value="" style="endArrow=classic;html=1;rounded=0;entryX=0.25;entryY=0;entryDx=0;entryDy=0;" parent="1" edge="1">
          <mxGeometry width="50" height="50" relative="1" as="geometry">
            <mxPoint x="518" y="190" as="sourcePoint" />
            <mxPoint x="518" y="310" as="targetPoint" />
          </mxGeometry>
        </mxCell>
        <mxCell id="M-paZG-Tj1EJP7v74Uxz-16" value="Account Registration Confirmation" style="text;html=1;strokeColor=none;fillColor=none;align=center;verticalAlign=middle;whiteSpace=wrap;rounded=0;fontSize=10;horizontal=0;" parent="1" vertex="1">
          <mxGeometry x="434" y="202" width="130" height="100" as="geometry" />
        </mxCell>
        <mxCell id="M-paZG-Tj1EJP7v74Uxz-17" value="" style="endArrow=classic;html=1;rounded=0;entryX=-0.02;entryY=0.5;entryDx=0;entryDy=0;entryPerimeter=0;exitX=0.46;exitY=-0.039;exitDx=0;exitDy=0;exitPerimeter=0;" parent="1" source="XdBd_PdMpTgLBT3q3rix-1" target="M-paZG-Tj1EJP7v74Uxz-3" edge="1">
          <mxGeometry width="50" height="50" relative="1" as="geometry">
            <mxPoint x="410" y="410" as="sourcePoint" />
            <mxPoint x="460" y="360" as="targetPoint" />
            <Array as="points">
              <mxPoint x="160" y="160" />
            </Array>
          </mxGeometry>
        </mxCell>
        <mxCell id="M-paZG-Tj1EJP7v74Uxz-18" value="Contact Information of passenger" style="text;html=1;align=center;verticalAlign=middle;resizable=0;points=[];autosize=1;strokeColor=none;fillColor=none;" parent="1" vertex="1">
          <mxGeometry x="205" y="133" width="200" height="30" as="geometry" />
        </mxCell>
        <mxCell id="M-paZG-Tj1EJP7v74Uxz-19" value="" style="endArrow=classic;html=1;rounded=0;entryX=1;entryY=0.48;entryDx=0;entryDy=0;entryPerimeter=0;exitX=0;exitY=0.4;exitDx=0;exitDy=0;exitPerimeter=0;" parent="1" source="M-paZG-Tj1EJP7v74Uxz-9" target="XdBd_PdMpTgLBT3q3rix-2" edge="1">
          <mxGeometry width="50" height="50" relative="1" as="geometry">
            <mxPoint x="420" y="430" as="sourcePoint" />
            <mxPoint x="470" y="380" as="targetPoint" />
            <Array as="points">
              <mxPoint x="240" y="419" />
            </Array>
          </mxGeometry>
        </mxCell>
        <mxCell id="M-paZG-Tj1EJP7v74Uxz-20" value="Account Registration Information" style="text;whiteSpace=wrap;html=1;rotation=0;" parent="1" vertex="1">
          <mxGeometry x="258" y="389" width="209" height="27" as="geometry" />
        </mxCell>
        <mxCell id="M-paZG-Tj1EJP7v74Uxz-21" value="" style="endArrow=classic;html=1;rounded=0;entryX=0.999;entryY=0.084;entryDx=0;entryDy=0;entryPerimeter=0;" parent="1" target="M-paZG-Tj1EJP7v74Uxz-9" edge="1">
          <mxGeometry width="50" height="50" relative="1" as="geometry">
            <mxPoint x="600" y="150" as="sourcePoint" />
            <mxPoint x="470" y="380" as="targetPoint" />
            <Array as="points">
              <mxPoint x="680" y="150" />
              <mxPoint x="680" y="400" />
            </Array>
          </mxGeometry>
        </mxCell>
        <mxCell id="M-paZG-Tj1EJP7v74Uxz-22" value="Account Registration Confirmation" style="text;html=1;strokeColor=none;fillColor=none;align=center;verticalAlign=middle;whiteSpace=wrap;rounded=0;fontSize=10;horizontal=0;" parent="1" vertex="1">
          <mxGeometry x="590" y="163" width="130" height="100" as="geometry" />
        </mxCell>
        <mxCell id="M-paZG-Tj1EJP7v74Uxz-23" value="" style="endArrow=classic;html=1;rounded=0;entryX=0;entryY=0.105;entryDx=0;entryDy=0;entryPerimeter=0;exitX=1;exitY=0;exitDx=0;exitDy=0;" parent="1" source="M-paZG-Tj1EJP7v74Uxz-8" target="M-paZG-Tj1EJP7v74Uxz-4" edge="1">
          <mxGeometry width="50" height="50" relative="1" as="geometry">
            <mxPoint x="590" y="310" as="sourcePoint" />
            <mxPoint x="440" y="260" as="targetPoint" />
          </mxGeometry>
        </mxCell>
        <mxCell id="M-paZG-Tj1EJP7v74Uxz-24" value="" style="endArrow=classic;html=1;rounded=0;entryX=0;entryY=0.84;entryDx=0;entryDy=0;entryPerimeter=0;exitX=0.999;exitY=0.428;exitDx=0;exitDy=0;exitPerimeter=0;" parent="1" source="M-paZG-Tj1EJP7v74Uxz-9" target="M-paZG-Tj1EJP7v74Uxz-5" edge="1">
          <mxGeometry width="50" height="50" relative="1" as="geometry">
            <mxPoint x="590" y="420" as="sourcePoint" />
            <mxPoint x="800" y="402.18" as="targetPoint" />
            <Array as="points">
              <mxPoint x="700" y="420" />
              <mxPoint x="800" y="420" />
            </Array>
          </mxGeometry>
        </mxCell>
        <mxCell id="M-paZG-Tj1EJP7v74Uxz-25" value="Account management" style="text;whiteSpace=wrap;html=1;fontSize=11;" parent="1" vertex="1">
          <mxGeometry x="620" y="286" width="150" height="40" as="geometry" />
        </mxCell>
        <mxCell id="M-paZG-Tj1EJP7v74Uxz-26" value="Account management" style="text;whiteSpace=wrap;html=1;fontSize=11;" parent="1" vertex="1">
          <mxGeometry x="630" y="395" width="150" height="40" as="geometry" />
        </mxCell>
        <mxCell id="M-paZG-Tj1EJP7v74Uxz-27" value="" style="endArrow=classic;html=1;rounded=0;exitX=-0.015;exitY=0.318;exitDx=0;exitDy=0;exitPerimeter=0;entryX=0.993;entryY=0.597;entryDx=0;entryDy=0;entryPerimeter=0;" parent="1" source="M-paZG-Tj1EJP7v74Uxz-5" target="M-paZG-Tj1EJP7v74Uxz-8" edge="1">
          <mxGeometry width="50" height="50" relative="1" as="geometry">
            <mxPoint x="570" y="360" as="sourcePoint" />
            <mxPoint x="610" y="350" as="targetPoint" />
          </mxGeometry>
        </mxCell>
        <mxCell id="M-paZG-Tj1EJP7v74Uxz-28" value="Modification Confirmation" style="text;html=1;strokeColor=none;fillColor=none;align=center;verticalAlign=middle;whiteSpace=wrap;rounded=0;fontSize=11;" parent="1" vertex="1">
          <mxGeometry x="590" y="320" width="200" height="30" as="geometry" />
        </mxCell>
        <mxCell id="M-paZG-Tj1EJP7v74Uxz-29" value="" style="endArrow=classic;html=1;rounded=0;entryX=1;entryY=0.75;entryDx=0;entryDy=0;" parent="1" target="M-paZG-Tj1EJP7v74Uxz-9" edge="1">
          <mxGeometry width="50" height="50" relative="1" as="geometry">
            <mxPoint x="840" y="380" as="sourcePoint" />
            <mxPoint x="730" y="310" as="targetPoint" />
            <Array as="points">
              <mxPoint x="840" y="440" />
            </Array>
          </mxGeometry>
        </mxCell>
        <mxCell id="M-paZG-Tj1EJP7v74Uxz-30" value="Modification Confirmation" style="text;html=1;strokeColor=none;fillColor=none;align=center;verticalAlign=middle;whiteSpace=wrap;rounded=0;fontSize=11;" parent="1" vertex="1">
          <mxGeometry x="610" y="435" width="200" height="30" as="geometry" />
        </mxCell>
        <mxCell id="M-paZG-Tj1EJP7v74Uxz-31" value="" style="endArrow=classic;html=1;rounded=0;entryX=-0.003;entryY=0.88;entryDx=0;entryDy=0;entryPerimeter=0;exitX=0.603;exitY=-0.013;exitDx=0;exitDy=0;exitPerimeter=0;" parent="1" source="XdBd_PdMpTgLBT3q3rix-1" target="M-paZG-Tj1EJP7v74Uxz-3" edge="1">
          <mxGeometry width="50" height="50" relative="1" as="geometry">
            <mxPoint x="500" y="400" as="sourcePoint" />
            <mxPoint x="550" y="350" as="targetPoint" />
            <Array as="points">
              <mxPoint x="180" y="180" />
            </Array>
          </mxGeometry>
        </mxCell>
        <mxCell id="M-paZG-Tj1EJP7v74Uxz-33" value="Contact Information of driver" style="text;html=1;align=center;verticalAlign=middle;resizable=0;points=[];autosize=1;strokeColor=none;fillColor=none;" parent="1" vertex="1">
          <mxGeometry x="220" y="180" width="170" height="30" as="geometry" />
        </mxCell>
        <mxCell id="M-paZG-Tj1EJP7v74Uxz-34" value="&lt;h2&gt;Level 1 for process 1&lt;/h2&gt;" style="text;html=1;align=center;verticalAlign=middle;resizable=0;points=[];autosize=1;strokeColor=none;fillColor=none;" parent="1" vertex="1">
          <mxGeometry x="-80" y="40" width="200" height="60" as="geometry" />
        </mxCell>
        <mxCell id="M-paZG-Tj1EJP7v74Uxz-36" value="2.4" style="swimlane;fontStyle=0;childLayout=stackLayout;horizontal=1;startSize=26;fillColor=none;horizontalStack=0;resizeParent=1;resizeParentMax=0;resizeLast=0;collapsible=1;marginBottom=0;html=1;rounded=1;" parent="1" vertex="1">
          <mxGeometry x="660" y="764" width="150" height="76" as="geometry" />
        </mxCell>
        <mxCell id="M-paZG-Tj1EJP7v74Uxz-37" value="Cancel&amp;nbsp;&lt;br&gt;a Ride" style="text;html=1;align=center;verticalAlign=middle;resizable=0;points=[];autosize=1;strokeColor=none;fillColor=none;fontSize=14;" parent="M-paZG-Tj1EJP7v74Uxz-36" vertex="1">
          <mxGeometry y="26" width="150" height="50" as="geometry" />
        </mxCell>
        <mxCell id="M-paZG-Tj1EJP7v74Uxz-40" value="2.1" style="swimlane;fontStyle=0;childLayout=stackLayout;horizontal=1;startSize=26;fillColor=none;horizontalStack=0;resizeParent=1;resizeParentMax=0;resizeLast=0;collapsible=1;marginBottom=0;html=1;rounded=1;" parent="1" vertex="1">
          <mxGeometry x="60" y="780" width="150" height="76" as="geometry" />
        </mxCell>
        <mxCell id="M-paZG-Tj1EJP7v74Uxz-41" value="Track&lt;br&gt;Location" style="text;html=1;align=center;verticalAlign=middle;resizable=0;points=[];autosize=1;strokeColor=none;fillColor=none;fontSize=14;" parent="M-paZG-Tj1EJP7v74Uxz-40" vertex="1">
          <mxGeometry y="26" width="150" height="50" as="geometry" />
        </mxCell>
        <mxCell id="M-paZG-Tj1EJP7v74Uxz-42" value="2.3" style="swimlane;fontStyle=0;childLayout=stackLayout;horizontal=1;startSize=26;fillColor=none;horizontalStack=0;resizeParent=1;resizeParentMax=0;resizeLast=0;collapsible=1;marginBottom=0;html=1;rounded=1;" parent="1" vertex="1">
          <mxGeometry x="650" y="610" width="150" height="76" as="geometry" />
        </mxCell>
        <mxCell id="M-paZG-Tj1EJP7v74Uxz-43" value="Start&lt;br&gt;a ride" style="text;html=1;align=center;verticalAlign=middle;resizable=0;points=[];autosize=1;strokeColor=none;fillColor=none;fontSize=14;" parent="M-paZG-Tj1EJP7v74Uxz-42" vertex="1">
          <mxGeometry y="26" width="150" height="50" as="geometry" />
        </mxCell>
        <mxCell id="M-paZG-Tj1EJP7v74Uxz-46" value="Passenger" style="rounded=0;whiteSpace=wrap;html=1;" parent="1" vertex="1">
          <mxGeometry x="345" y="780" width="120" height="60" as="geometry" />
        </mxCell>
        <mxCell id="M-paZG-Tj1EJP7v74Uxz-47" value="Driver" style="rounded=0;whiteSpace=wrap;html=1;" parent="1" vertex="1">
          <mxGeometry x="470" y="870" width="120" height="60" as="geometry" />
        </mxCell>
        <mxCell id="M-paZG-Tj1EJP7v74Uxz-48" value="" style="endArrow=classic;html=1;rounded=0;exitX=0.926;exitY=-0.013;exitDx=0;exitDy=0;exitPerimeter=0;entryX=0.75;entryY=1;entryDx=0;entryDy=0;" parent="1" source="M-paZG-Tj1EJP7v74Uxz-40" target="M-paZG-Tj1EJP7v74Uxz-54" edge="1">
          <mxGeometry width="50" height="50" relative="1" as="geometry">
            <mxPoint x="270" y="840" as="sourcePoint" />
            <mxPoint x="340" y="790" as="targetPoint" />
            <Array as="points">
              <mxPoint x="200" y="760" />
              <mxPoint x="270" y="760" />
              <mxPoint x="348" y="760" />
            </Array>
          </mxGeometry>
        </mxCell>
        <mxCell id="M-paZG-Tj1EJP7v74Uxz-49" value="" style="endArrow=classic;html=1;rounded=0;entryX=0.75;entryY=0;entryDx=0;entryDy=0;exitX=0.116;exitY=-0.002;exitDx=0;exitDy=0;exitPerimeter=0;" parent="1" source="M-paZG-Tj1EJP7v74Uxz-46" target="M-paZG-Tj1EJP7v74Uxz-40" edge="1">
          <mxGeometry width="50" height="50" relative="1" as="geometry">
            <mxPoint x="340" y="786" as="sourcePoint" />
            <mxPoint x="320" y="790" as="targetPoint" />
            <Array as="points">
              <mxPoint x="360" y="740" />
              <mxPoint x="173" y="740" />
            </Array>
          </mxGeometry>
        </mxCell>
        <mxCell id="M-paZG-Tj1EJP7v74Uxz-50" value="" style="endArrow=classic;html=1;rounded=0;exitX=-0.002;exitY=0.165;exitDx=0;exitDy=0;exitPerimeter=0;" parent="1" source="M-paZG-Tj1EJP7v74Uxz-47" edge="1">
          <mxGeometry width="50" height="50" relative="1" as="geometry">
            <mxPoint x="270" y="840" as="sourcePoint" />
            <mxPoint x="185" y="850" as="targetPoint" />
            <Array as="points">
              <mxPoint x="185" y="880" />
            </Array>
          </mxGeometry>
        </mxCell>
        <mxCell id="M-paZG-Tj1EJP7v74Uxz-51" value="" style="endArrow=classic;html=1;rounded=0;exitX=0.659;exitY=1.042;exitDx=0;exitDy=0;exitPerimeter=0;entryX=0;entryY=0.5;entryDx=0;entryDy=0;" parent="1" source="M-paZG-Tj1EJP7v74Uxz-41" target="M-paZG-Tj1EJP7v74Uxz-47" edge="1">
          <mxGeometry width="50" height="50" relative="1" as="geometry">
            <mxPoint x="270" y="840" as="sourcePoint" />
            <mxPoint x="320" y="790" as="targetPoint" />
            <Array as="points">
              <mxPoint x="159" y="900" />
            </Array>
          </mxGeometry>
        </mxCell>
        <mxCell id="M-paZG-Tj1EJP7v74Uxz-52" value="Location access confirmation" style="text;whiteSpace=wrap;html=1;" parent="1" vertex="1">
          <mxGeometry x="180" y="710" width="190" height="40" as="geometry" />
        </mxCell>
        <mxCell id="M-paZG-Tj1EJP7v74Uxz-53" value="Location access confirmation" style="text;whiteSpace=wrap;html=1;" parent="1" vertex="1">
          <mxGeometry x="238" y="859" width="190" height="40" as="geometry" />
        </mxCell>
        <mxCell id="M-paZG-Tj1EJP7v74Uxz-54" value="Location information&amp;nbsp;" style="text;whiteSpace=wrap;html=1;" parent="1" vertex="1">
          <mxGeometry x="205" y="740" width="190" height="40" as="geometry" />
        </mxCell>
        <mxCell id="M-paZG-Tj1EJP7v74Uxz-55" value="Location information&amp;nbsp;" style="text;whiteSpace=wrap;html=1;" parent="1" vertex="1">
          <mxGeometry x="237" y="879" width="190" height="40" as="geometry" />
        </mxCell>
        <mxCell id="M-paZG-Tj1EJP7v74Uxz-57" value="2.2" style="swimlane;fontStyle=0;childLayout=stackLayout;horizontal=1;startSize=26;fillColor=none;horizontalStack=0;resizeParent=1;resizeParentMax=0;resizeLast=0;collapsible=1;marginBottom=0;html=1;rounded=1;" parent="1" vertex="1">
          <mxGeometry x="380" y="600" width="150" height="76" as="geometry" />
        </mxCell>
        <mxCell id="M-paZG-Tj1EJP7v74Uxz-58" value="View&amp;nbsp;&lt;br&gt;available drivers" style="text;html=1;align=center;verticalAlign=middle;resizable=0;points=[];autosize=1;strokeColor=none;fillColor=none;fontSize=14;" parent="M-paZG-Tj1EJP7v74Uxz-57" vertex="1">
          <mxGeometry y="26" width="150" height="50" as="geometry" />
        </mxCell>
        <mxCell id="M-paZG-Tj1EJP7v74Uxz-59" value="" style="endArrow=classic;html=1;rounded=0;exitX=0.451;exitY=-0.01;exitDx=0;exitDy=0;entryX=0.127;entryY=1.052;entryDx=0;entryDy=0;entryPerimeter=0;exitPerimeter=0;" parent="1" source="M-paZG-Tj1EJP7v74Uxz-46" target="M-paZG-Tj1EJP7v74Uxz-58" edge="1">
          <mxGeometry width="50" height="50" relative="1" as="geometry">
            <mxPoint x="460" y="690" as="sourcePoint" />
            <mxPoint x="380" y="680" as="targetPoint" />
          </mxGeometry>
        </mxCell>
        <mxCell id="M-paZG-Tj1EJP7v74Uxz-60" value="Ride search" style="text;whiteSpace=wrap;html=1;horizontal=0;" parent="1" vertex="1">
          <mxGeometry x="370" y="700" width="30" height="70" as="geometry" />
        </mxCell>
        <mxCell id="M-paZG-Tj1EJP7v74Uxz-61" value="" style="endArrow=classic;html=1;rounded=0;entryX=0.624;entryY=0.004;entryDx=0;entryDy=0;entryPerimeter=0;exitX=0.255;exitY=1.052;exitDx=0;exitDy=0;exitPerimeter=0;" parent="1" source="M-paZG-Tj1EJP7v74Uxz-58" target="M-paZG-Tj1EJP7v74Uxz-46" edge="1">
          <mxGeometry width="50" height="50" relative="1" as="geometry">
            <mxPoint x="360" y="690" as="sourcePoint" />
            <mxPoint x="410" y="640" as="targetPoint" />
          </mxGeometry>
        </mxCell>
        <mxCell id="M-paZG-Tj1EJP7v74Uxz-62" value="Availability of drivers" style="text;whiteSpace=wrap;html=1;horizontal=0;fontSize=11;" parent="1" vertex="1">
          <mxGeometry x="419" y="694" width="46" height="70" as="geometry" />
        </mxCell>
        <mxCell id="M-paZG-Tj1EJP7v74Uxz-63" value="" style="endArrow=classic;html=1;rounded=0;exitX=0.75;exitY=0;exitDx=0;exitDy=0;entryX=-0.006;entryY=0.179;entryDx=0;entryDy=0;entryPerimeter=0;" parent="1" source="M-paZG-Tj1EJP7v74Uxz-46" target="M-paZG-Tj1EJP7v74Uxz-42" edge="1">
          <mxGeometry width="50" height="50" relative="1" as="geometry">
            <mxPoint x="520" y="690" as="sourcePoint" />
            <mxPoint x="570" y="640" as="targetPoint" />
            <Array as="points">
              <mxPoint x="540" y="700" />
            </Array>
          </mxGeometry>
        </mxCell>
        <mxCell id="M-paZG-Tj1EJP7v74Uxz-64" value="Ride request" style="text;whiteSpace=wrap;html=1;rotation=-35;fontSize=11;" parent="1" vertex="1">
          <mxGeometry x="481" y="671" width="140" height="40" as="geometry" />
        </mxCell>
        <mxCell id="M-paZG-Tj1EJP7v74Uxz-66" value="" style="endArrow=classic;html=1;rounded=0;entryX=1;entryY=0;entryDx=0;entryDy=0;exitX=-0.001;exitY=0.102;exitDx=0;exitDy=0;exitPerimeter=0;" parent="1" source="M-paZG-Tj1EJP7v74Uxz-43" target="M-paZG-Tj1EJP7v74Uxz-46" edge="1">
          <mxGeometry width="50" height="50" relative="1" as="geometry">
            <mxPoint x="520" y="690" as="sourcePoint" />
            <mxPoint x="570" y="640" as="targetPoint" />
          </mxGeometry>
        </mxCell>
        <mxCell id="M-paZG-Tj1EJP7v74Uxz-67" value="Ride confirmation" style="text;whiteSpace=wrap;html=1;rotation=-40;fontSize=11;" parent="1" vertex="1">
          <mxGeometry x="470.81" y="695.81" width="140" height="14" as="geometry" />
        </mxCell>
        <mxCell id="M-paZG-Tj1EJP7v74Uxz-68" value="" style="endArrow=classic;html=1;rounded=0;entryX=1;entryY=0.25;entryDx=0;entryDy=0;exitX=-0.001;exitY=0.518;exitDx=0;exitDy=0;exitPerimeter=0;" parent="1" source="M-paZG-Tj1EJP7v74Uxz-43" target="M-paZG-Tj1EJP7v74Uxz-46" edge="1">
          <mxGeometry width="50" height="50" relative="1" as="geometry">
            <mxPoint x="520" y="690" as="sourcePoint" />
            <mxPoint x="570" y="640" as="targetPoint" />
          </mxGeometry>
        </mxCell>
        <mxCell id="M-paZG-Tj1EJP7v74Uxz-69" value="&lt;font style=&quot;font-size: 11px;&quot;&gt;Ride status&lt;/font&gt;" style="text;whiteSpace=wrap;html=1;rotation=-35;fontSize=11;" parent="1" vertex="1">
          <mxGeometry x="516" y="712.81" width="70" height="20" as="geometry" />
        </mxCell>
        <mxCell id="M-paZG-Tj1EJP7v74Uxz-70" value="" style="endArrow=classic;html=1;rounded=0;exitX=0.994;exitY=0.901;exitDx=0;exitDy=0;exitPerimeter=0;" parent="1" source="M-paZG-Tj1EJP7v74Uxz-43" edge="1">
          <mxGeometry width="50" height="50" relative="1" as="geometry">
            <mxPoint x="670" y="740" as="sourcePoint" />
            <mxPoint x="590" y="880" as="targetPoint" />
            <Array as="points">
              <mxPoint x="880" y="681" />
              <mxPoint x="880" y="880" />
            </Array>
          </mxGeometry>
        </mxCell>
        <mxCell id="M-paZG-Tj1EJP7v74Uxz-71" value="Ride request notification" style="text;whiteSpace=wrap;html=1;horizontal=0;" parent="1" vertex="1">
          <mxGeometry x="853" y="591" width="140" height="140" as="geometry" />
        </mxCell>
        <mxCell id="M-paZG-Tj1EJP7v74Uxz-72" value="" style="endArrow=classic;html=1;rounded=0;entryX=1.012;entryY=0.518;entryDx=0;entryDy=0;entryPerimeter=0;exitX=1;exitY=0.5;exitDx=0;exitDy=0;" parent="1" source="M-paZG-Tj1EJP7v74Uxz-47" target="M-paZG-Tj1EJP7v74Uxz-43" edge="1">
          <mxGeometry width="50" height="50" relative="1" as="geometry">
            <mxPoint x="660" y="750" as="sourcePoint" />
            <mxPoint x="710" y="700" as="targetPoint" />
            <Array as="points">
              <mxPoint x="900" y="900" />
              <mxPoint x="900" y="661" />
            </Array>
          </mxGeometry>
        </mxCell>
        <mxCell id="M-paZG-Tj1EJP7v74Uxz-73" value="" style="endArrow=classic;html=1;rounded=0;entryX=1.002;entryY=0.826;entryDx=0;entryDy=0;exitX=1.006;exitY=0.101;exitDx=0;exitDy=0;exitPerimeter=0;entryPerimeter=0;" parent="1" source="M-paZG-Tj1EJP7v74Uxz-43" target="M-paZG-Tj1EJP7v74Uxz-47" edge="1">
          <mxGeometry width="50" height="50" relative="1" as="geometry">
            <mxPoint x="660" y="770" as="sourcePoint" />
            <mxPoint x="710" y="720" as="targetPoint" />
            <Array as="points">
              <mxPoint x="920" y="640" />
              <mxPoint x="920" y="920" />
            </Array>
          </mxGeometry>
        </mxCell>
        <mxCell id="M-paZG-Tj1EJP7v74Uxz-74" value="" style="endArrow=classic;html=1;rounded=0;entryX=1.009;entryY=0.184;entryDx=0;entryDy=0;entryPerimeter=0;exitX=1;exitY=1;exitDx=0;exitDy=0;" parent="1" source="M-paZG-Tj1EJP7v74Uxz-47" target="M-paZG-Tj1EJP7v74Uxz-42" edge="1">
          <mxGeometry width="50" height="50" relative="1" as="geometry">
            <mxPoint x="680" y="750" as="sourcePoint" />
            <mxPoint x="730" y="700" as="targetPoint" />
            <Array as="points">
              <mxPoint x="940" y="930" />
              <mxPoint x="940" y="624" />
            </Array>
          </mxGeometry>
        </mxCell>
        <mxCell id="M-paZG-Tj1EJP7v74Uxz-75" value="&lt;font style=&quot;font-size: 11px;&quot;&gt;Response for ride&lt;/font&gt;" style="text;whiteSpace=wrap;html=1;fontSize=11;horizontal=0;" parent="1" vertex="1">
          <mxGeometry x="876" y="738" width="20" height="90" as="geometry" />
        </mxCell>
        <mxCell id="M-paZG-Tj1EJP7v74Uxz-76" value="Requested ride details" style="text;whiteSpace=wrap;html=1;fontSize=11;horizontal=0;" parent="1" vertex="1">
          <mxGeometry x="896" y="710" width="20" height="126" as="geometry" />
        </mxCell>
        <mxCell id="M-paZG-Tj1EJP7v74Uxz-77" value="Ride status updates" style="text;html=1;align=center;verticalAlign=middle;resizable=0;points=[];autosize=1;strokeColor=none;fillColor=none;rotation=0;fontSize=11;horizontal=0;" parent="1" vertex="1">
          <mxGeometry x="871" y="650" width="120" height="30" as="geometry" />
        </mxCell>
        <mxCell id="M-paZG-Tj1EJP7v74Uxz-78" value="" style="endArrow=classic;html=1;rounded=0;entryX=0;entryY=0;entryDx=0;entryDy=0;exitX=1;exitY=0.25;exitDx=0;exitDy=0;" parent="1" source="M-paZG-Tj1EJP7v74Uxz-46" target="M-paZG-Tj1EJP7v74Uxz-36" edge="1">
          <mxGeometry width="50" height="50" relative="1" as="geometry">
            <mxPoint x="450" y="750" as="sourcePoint" />
            <mxPoint x="500" y="700" as="targetPoint" />
          </mxGeometry>
        </mxCell>
        <mxCell id="M-paZG-Tj1EJP7v74Uxz-79" value="Ride cancellation request" style="text;whiteSpace=wrap;html=1;fontSize=11;rotation=-10;" parent="1" vertex="1">
          <mxGeometry x="507.78" y="751.47" width="138.12" height="20" as="geometry" />
        </mxCell>
        <mxCell id="M-paZG-Tj1EJP7v74Uxz-80" value="" style="endArrow=classic;html=1;rounded=0;entryX=-0.004;entryY=0.563;entryDx=0;entryDy=0;entryPerimeter=0;exitX=0;exitY=0;exitDx=0;exitDy=0;" parent="1" source="M-paZG-Tj1EJP7v74Uxz-47" target="M-paZG-Tj1EJP7v74Uxz-37" edge="1">
          <mxGeometry width="50" height="50" relative="1" as="geometry">
            <mxPoint x="450" y="750" as="sourcePoint" />
            <mxPoint x="500" y="700" as="targetPoint" />
          </mxGeometry>
        </mxCell>
        <mxCell id="M-paZG-Tj1EJP7v74Uxz-81" value="Ride cancellation request" style="text;whiteSpace=wrap;html=1;fontSize=11;rotation=-15;" parent="1" vertex="1">
          <mxGeometry x="500.68730519969245" y="817.8402206798003" width="138.12" height="20" as="geometry" />
        </mxCell>
        <mxCell id="M-paZG-Tj1EJP7v74Uxz-82" value="" style="endArrow=classic;html=1;rounded=0;entryX=1;entryY=0.75;entryDx=0;entryDy=0;exitX=0.003;exitY=-0.026;exitDx=0;exitDy=0;exitPerimeter=0;" parent="1" source="M-paZG-Tj1EJP7v74Uxz-37" target="M-paZG-Tj1EJP7v74Uxz-46" edge="1">
          <mxGeometry width="50" height="50" relative="1" as="geometry">
            <mxPoint x="450" y="750" as="sourcePoint" />
            <mxPoint x="500" y="700" as="targetPoint" />
          </mxGeometry>
        </mxCell>
        <mxCell id="M-paZG-Tj1EJP7v74Uxz-83" value="" style="endArrow=classic;html=1;rounded=0;entryX=0.75;entryY=0;entryDx=0;entryDy=0;exitX=0.34;exitY=1.005;exitDx=0;exitDy=0;exitPerimeter=0;" parent="1" source="M-paZG-Tj1EJP7v74Uxz-37" target="M-paZG-Tj1EJP7v74Uxz-47" edge="1">
          <mxGeometry width="50" height="50" relative="1" as="geometry">
            <mxPoint x="450" y="750" as="sourcePoint" />
            <mxPoint x="500" y="700" as="targetPoint" />
          </mxGeometry>
        </mxCell>
        <mxCell id="M-paZG-Tj1EJP7v74Uxz-84" value="Ride cancellation confirmation" style="text;whiteSpace=wrap;html=1;fontSize=11;rotation=-10;" parent="1" vertex="1">
          <mxGeometry x="484.75" y="780" width="170" height="20" as="geometry" />
        </mxCell>
        <mxCell id="M-paZG-Tj1EJP7v74Uxz-86" value="Ride cancellation confirmation" style="text;whiteSpace=wrap;html=1;fontSize=11;rotation=-10;" parent="1" vertex="1">
          <mxGeometry x="529.9951407827069" y="835.9981726318111" width="170" height="20" as="geometry" />
        </mxCell>
        <mxCell id="M-paZG-Tj1EJP7v74Uxz-87" value="&lt;h2&gt;Level 1 for process 2&lt;/h2&gt;" style="text;whiteSpace=wrap;html=1;" parent="1" vertex="1">
          <mxGeometry x="-50" y="494" width="240" height="40" as="geometry" />
        </mxCell>
        <mxCell id="M-paZG-Tj1EJP7v74Uxz-89" value="&lt;h2&gt;Level 1 for process 3&lt;/h2&gt;" style="text;whiteSpace=wrap;html=1;" parent="1" vertex="1">
          <mxGeometry x="-40" y="990" width="240" height="40" as="geometry" />
        </mxCell>
        <mxCell id="M-paZG-Tj1EJP7v74Uxz-91" value="3.1" style="swimlane;fontStyle=0;childLayout=stackLayout;horizontal=1;startSize=26;fillColor=none;horizontalStack=0;resizeParent=1;resizeParentMax=0;resizeLast=0;collapsible=1;marginBottom=0;html=1;rounded=1;" parent="1" vertex="1">
          <mxGeometry x="120" y="1090" width="150" height="76" as="geometry" />
        </mxCell>
        <mxCell id="M-paZG-Tj1EJP7v74Uxz-92" value="Choose payment&amp;nbsp;&lt;br&gt;method" style="text;html=1;align=center;verticalAlign=middle;resizable=0;points=[];autosize=1;strokeColor=none;fillColor=none;fontSize=14;" parent="M-paZG-Tj1EJP7v74Uxz-91" vertex="1">
          <mxGeometry y="26" width="150" height="50" as="geometry" />
        </mxCell>
        <mxCell id="M-paZG-Tj1EJP7v74Uxz-93" value="3.2" style="swimlane;fontStyle=0;childLayout=stackLayout;horizontal=1;startSize=26;fillColor=none;horizontalStack=0;resizeParent=1;resizeParentMax=0;resizeLast=0;collapsible=1;marginBottom=0;html=1;rounded=1;" parent="1" vertex="1">
          <mxGeometry x="670" y="1090" width="150" height="76" as="geometry" />
        </mxCell>
        <mxCell id="M-paZG-Tj1EJP7v74Uxz-94" value="Pay for&amp;nbsp;&lt;br&gt;ride" style="text;html=1;align=center;verticalAlign=middle;resizable=0;points=[];autosize=1;strokeColor=none;fillColor=none;fontSize=14;" parent="M-paZG-Tj1EJP7v74Uxz-93" vertex="1">
          <mxGeometry y="26" width="150" height="50" as="geometry" />
        </mxCell>
        <mxCell id="M-paZG-Tj1EJP7v74Uxz-95" value="Passenger" style="rounded=0;whiteSpace=wrap;html=1;" parent="1" vertex="1">
          <mxGeometry x="405" y="1098" width="120" height="60" as="geometry" />
        </mxCell>
        <mxCell id="M-paZG-Tj1EJP7v74Uxz-96" value="" style="endArrow=classic;html=1;rounded=0;exitX=0;exitY=0.25;exitDx=0;exitDy=0;entryX=1;entryY=-0.073;entryDx=0;entryDy=0;entryPerimeter=0;" parent="1" edge="1">
          <mxGeometry width="50" height="50" relative="1" as="geometry">
            <mxPoint x="405" y="1127" as="sourcePoint" />
            <mxPoint x="270" y="1126.35" as="targetPoint" />
          </mxGeometry>
        </mxCell>
        <mxCell id="M-paZG-Tj1EJP7v74Uxz-97" value="" style="endArrow=classic;html=1;rounded=0;exitX=1;exitY=0.25;exitDx=0;exitDy=0;" parent="1" source="M-paZG-Tj1EJP7v74Uxz-95" edge="1">
          <mxGeometry width="50" height="50" relative="1" as="geometry">
            <mxPoint x="440" y="1070" as="sourcePoint" />
            <mxPoint x="670" y="1113" as="targetPoint" />
          </mxGeometry>
        </mxCell>
        <mxCell id="M-paZG-Tj1EJP7v74Uxz-98" value="" style="endArrow=classic;html=1;rounded=0;entryX=1;entryY=0.75;entryDx=0;entryDy=0;" parent="1" source="M-paZG-Tj1EJP7v74Uxz-94" target="M-paZG-Tj1EJP7v74Uxz-95" edge="1">
          <mxGeometry width="50" height="50" relative="1" as="geometry">
            <mxPoint x="440" y="1070" as="sourcePoint" />
            <mxPoint x="490" y="1020" as="targetPoint" />
          </mxGeometry>
        </mxCell>
        <mxCell id="M-paZG-Tj1EJP7v74Uxz-99" value="Payment information" style="text;html=1;strokeColor=none;fillColor=none;align=center;verticalAlign=middle;whiteSpace=wrap;rounded=0;fontSize=11;" parent="1" vertex="1">
          <mxGeometry x="252" y="1098" width="160" height="25" as="geometry" />
        </mxCell>
        <mxCell id="M-paZG-Tj1EJP7v74Uxz-100" value="Payment confirmation" style="text;html=1;strokeColor=none;fillColor=none;align=center;verticalAlign=middle;whiteSpace=wrap;rounded=0;fontSize=11;" parent="1" vertex="1">
          <mxGeometry x="510" y="1090" width="160" height="25" as="geometry" />
        </mxCell>
        <mxCell id="M-paZG-Tj1EJP7v74Uxz-101" value="Payment authentification" style="text;html=1;strokeColor=none;fillColor=none;align=center;verticalAlign=middle;whiteSpace=wrap;rounded=0;fontSize=11;" parent="1" vertex="1">
          <mxGeometry x="500" y="1113" width="200" height="30" as="geometry" />
        </mxCell>
        <mxCell id="M-paZG-Tj1EJP7v74Uxz-102" value="Location Datastore&amp;nbsp; &amp;nbsp; &amp;nbsp;" style="rounded=0;whiteSpace=wrap;html=1;align=right;" parent="1" vertex="1">
          <mxGeometry x="-30" y="649.81" width="190" height="40.19" as="geometry" />
        </mxCell>
        <mxCell id="M-paZG-Tj1EJP7v74Uxz-105" value="" style="endArrow=none;html=1;rounded=0;exitX=0.25;exitY=1;exitDx=0;exitDy=0;entryX=0.25;entryY=0;entryDx=0;entryDy=0;" parent="1" source="M-paZG-Tj1EJP7v74Uxz-102" target="M-paZG-Tj1EJP7v74Uxz-102" edge="1">
          <mxGeometry width="50" height="50" relative="1" as="geometry">
            <mxPoint x="260" y="840" as="sourcePoint" />
            <mxPoint x="310" y="790" as="targetPoint" />
            <Array as="points" />
          </mxGeometry>
        </mxCell>
        <mxCell id="M-paZG-Tj1EJP7v74Uxz-106" value="D2" style="text;html=1;align=center;verticalAlign=middle;resizable=0;points=[];autosize=1;strokeColor=none;fillColor=none;" parent="1" vertex="1">
          <mxGeometry x="-20" y="656" width="40" height="30" as="geometry" />
        </mxCell>
        <mxCell id="M-paZG-Tj1EJP7v74Uxz-107" value="" style="endArrow=classic;html=1;rounded=0;entryX=0.161;entryY=1.124;entryDx=0;entryDy=0;entryPerimeter=0;exitX=0;exitY=0.5;exitDx=0;exitDy=0;" parent="1" source="M-paZG-Tj1EJP7v74Uxz-40" target="M-paZG-Tj1EJP7v74Uxz-102" edge="1">
          <mxGeometry width="50" height="50" relative="1" as="geometry">
            <mxPoint x="260" y="840" as="sourcePoint" />
            <mxPoint x="310" y="790" as="targetPoint" />
            <Array as="points">
              <mxPoint y="818" />
              <mxPoint y="700" />
            </Array>
          </mxGeometry>
        </mxCell>
        <mxCell id="M-paZG-Tj1EJP7v74Uxz-108" value="Location information" style="text;html=1;strokeColor=none;fillColor=none;align=center;verticalAlign=middle;whiteSpace=wrap;rounded=0;fontSize=11;horizontal=0;" parent="1" vertex="1">
          <mxGeometry x="-50" y="709.81" width="70" height="114" as="geometry" />
        </mxCell>
        <mxCell id="M-paZG-Tj1EJP7v74Uxz-109" value="" style="endArrow=classic;html=1;rounded=0;entryX=0.468;entryY=-0.02;entryDx=0;entryDy=0;exitX=0.5;exitY=0;exitDx=0;exitDy=0;entryPerimeter=0;" parent="1" source="M-paZG-Tj1EJP7v74Uxz-102" target="M-paZG-Tj1EJP7v74Uxz-42" edge="1">
          <mxGeometry width="50" height="50" relative="1" as="geometry">
            <mxPoint x="370" y="840" as="sourcePoint" />
            <mxPoint x="420" y="790" as="targetPoint" />
            <Array as="points">
              <mxPoint x="65" y="560" />
              <mxPoint x="720" y="560" />
            </Array>
          </mxGeometry>
        </mxCell>
        <mxCell id="M-paZG-Tj1EJP7v74Uxz-111" value="Location information" style="text;html=1;strokeColor=none;fillColor=none;align=center;verticalAlign=middle;whiteSpace=wrap;rounded=0;fontSize=12;horizontal=1;" parent="1" vertex="1">
          <mxGeometry x="345" y="497" width="150" height="94" as="geometry" />
        </mxCell>
        <mxCell id="M-paZG-Tj1EJP7v74Uxz-112" value="&lt;h2&gt;Level 1 for process 4&lt;/h2&gt;" style="text;whiteSpace=wrap;html=1;" parent="1" vertex="1">
          <mxGeometry x="-20" y="1300" width="240" height="40" as="geometry" />
        </mxCell>
        <mxCell id="M-paZG-Tj1EJP7v74Uxz-113" value="4.1" style="swimlane;fontStyle=0;childLayout=stackLayout;horizontal=1;startSize=26;fillColor=none;horizontalStack=0;resizeParent=1;resizeParentMax=0;resizeLast=0;collapsible=1;marginBottom=0;html=1;rounded=1;" parent="1" vertex="1">
          <mxGeometry x="429" y="1388" width="150" height="76" as="geometry" />
        </mxCell>
        <mxCell id="M-paZG-Tj1EJP7v74Uxz-114" value="Provide&amp;nbsp;&lt;br&gt;Feedback" style="text;html=1;align=center;verticalAlign=middle;resizable=0;points=[];autosize=1;strokeColor=none;fillColor=none;fontSize=14;" parent="M-paZG-Tj1EJP7v74Uxz-113" vertex="1">
          <mxGeometry y="26" width="150" height="50" as="geometry" />
        </mxCell>
        <mxCell id="M-paZG-Tj1EJP7v74Uxz-115" value="4.2" style="swimlane;fontStyle=0;childLayout=stackLayout;horizontal=1;startSize=26;fillColor=none;horizontalStack=0;resizeParent=1;resizeParentMax=0;resizeLast=0;collapsible=1;marginBottom=0;html=1;rounded=1;" parent="1" vertex="1">
          <mxGeometry x="453" y="1578" width="150" height="76" as="geometry" />
        </mxCell>
        <mxCell id="M-paZG-Tj1EJP7v74Uxz-116" value="Report&lt;br&gt;Account" style="text;html=1;align=center;verticalAlign=middle;resizable=0;points=[];autosize=1;strokeColor=none;fillColor=none;fontSize=14;" parent="M-paZG-Tj1EJP7v74Uxz-115" vertex="1">
          <mxGeometry y="26" width="150" height="50" as="geometry" />
        </mxCell>
        <mxCell id="M-paZG-Tj1EJP7v74Uxz-117" value="Passenger" style="rounded=0;whiteSpace=wrap;html=1;" parent="1" vertex="1">
          <mxGeometry x="130" y="1558" width="120" height="60" as="geometry" />
        </mxCell>
        <mxCell id="M-paZG-Tj1EJP7v74Uxz-124" value="User&#39;s data&amp;nbsp; &amp;nbsp; &amp;nbsp; &amp;nbsp; &amp;nbsp;" style="rounded=0;whiteSpace=wrap;html=1;align=right;" parent="1" vertex="1">
          <mxGeometry x="-30" y="123" width="170" height="40" as="geometry" />
        </mxCell>
        <mxCell id="M-paZG-Tj1EJP7v74Uxz-125" value="" style="endArrow=none;html=1;rounded=0;entryX=0.25;entryY=0;entryDx=0;entryDy=0;exitX=0.25;exitY=1;exitDx=0;exitDy=0;" parent="1" source="M-paZG-Tj1EJP7v74Uxz-124" target="M-paZG-Tj1EJP7v74Uxz-124" edge="1">
          <mxGeometry width="50" height="50" relative="1" as="geometry">
            <mxPoint x="-230" y="433" as="sourcePoint" />
            <mxPoint x="-180" y="383" as="targetPoint" />
            <Array as="points" />
          </mxGeometry>
        </mxCell>
        <mxCell id="M-paZG-Tj1EJP7v74Uxz-126" value="D1" style="text;html=1;strokeColor=none;fillColor=none;align=center;verticalAlign=middle;whiteSpace=wrap;rounded=0;" parent="1" vertex="1">
          <mxGeometry x="-40" y="128" width="60" height="30" as="geometry" />
        </mxCell>
        <mxCell id="M-paZG-Tj1EJP7v74Uxz-127" value="" style="endArrow=classic;html=1;rounded=0;entryX=0.413;entryY=0.981;entryDx=0;entryDy=0;entryPerimeter=0;exitX=0.25;exitY=0;exitDx=0;exitDy=0;" parent="1" source="XdBd_PdMpTgLBT3q3rix-1" target="M-paZG-Tj1EJP7v74Uxz-124" edge="1">
          <mxGeometry width="50" height="50" relative="1" as="geometry">
            <mxPoint x="460" y="250" as="sourcePoint" />
            <mxPoint x="510" y="200" as="targetPoint" />
            <Array as="points">
              <mxPoint x="40" y="310" />
            </Array>
          </mxGeometry>
        </mxCell>
        <mxCell id="M-paZG-Tj1EJP7v74Uxz-128" value="Account information" style="text;html=1;align=center;verticalAlign=middle;resizable=0;points=[];autosize=1;strokeColor=none;fillColor=none;horizontal=0;fontSize=11;" parent="1" vertex="1">
          <mxGeometry x="35" y="192" width="40" height="110" as="geometry" />
        </mxCell>
        <mxCell id="M-paZG-Tj1EJP7v74Uxz-129" value="Driver" style="rounded=0;whiteSpace=wrap;html=1;" parent="1" vertex="1">
          <mxGeometry x="130" y="1438" width="120" height="60" as="geometry" />
        </mxCell>
        <mxCell id="M-paZG-Tj1EJP7v74Uxz-130" value="Administrator" style="rounded=0;whiteSpace=wrap;html=1;" parent="1" vertex="1">
          <mxGeometry x="973" y="1598" width="120" height="60" as="geometry" />
        </mxCell>
        <mxCell id="M-paZG-Tj1EJP7v74Uxz-131" value="4.3" style="swimlane;fontStyle=0;childLayout=stackLayout;horizontal=1;startSize=26;fillColor=none;horizontalStack=0;resizeParent=1;resizeParentMax=0;resizeLast=0;collapsible=1;marginBottom=0;html=1;rounded=1;" parent="1" vertex="1">
          <mxGeometry x="743" y="1488" width="150" height="76" as="geometry" />
        </mxCell>
        <mxCell id="M-paZG-Tj1EJP7v74Uxz-132" value="Review Flagged &lt;br&gt;Accounts" style="text;html=1;align=center;verticalAlign=middle;resizable=0;points=[];autosize=1;strokeColor=none;fillColor=none;fontSize=14;" parent="M-paZG-Tj1EJP7v74Uxz-131" vertex="1">
          <mxGeometry y="26" width="150" height="50" as="geometry" />
        </mxCell>
        <mxCell id="M-paZG-Tj1EJP7v74Uxz-133" value="Feedback Datastore&amp;nbsp; &amp;nbsp;" style="rounded=0;whiteSpace=wrap;html=1;align=right;" parent="1" vertex="1">
          <mxGeometry x="938" y="1378" width="190" height="40.19" as="geometry" />
        </mxCell>
        <mxCell id="M-paZG-Tj1EJP7v74Uxz-134" value="" style="endArrow=none;html=1;rounded=0;exitX=0.25;exitY=1;exitDx=0;exitDy=0;entryX=0.25;entryY=0;entryDx=0;entryDy=0;" parent="1" source="M-paZG-Tj1EJP7v74Uxz-133" target="M-paZG-Tj1EJP7v74Uxz-133" edge="1">
          <mxGeometry width="50" height="50" relative="1" as="geometry">
            <mxPoint x="883" y="1598.19" as="sourcePoint" />
            <mxPoint x="933" y="1548.19" as="targetPoint" />
            <Array as="points" />
          </mxGeometry>
        </mxCell>
        <mxCell id="M-paZG-Tj1EJP7v74Uxz-135" value="D4" style="text;html=1;align=center;verticalAlign=middle;resizable=0;points=[];autosize=1;strokeColor=none;fillColor=none;" parent="1" vertex="1">
          <mxGeometry x="943" y="1383.1000000000001" width="40" height="30" as="geometry" />
        </mxCell>
        <mxCell id="M-paZG-Tj1EJP7v74Uxz-137" value="" style="endArrow=classic;html=1;rounded=0;entryX=0.007;entryY=0.128;entryDx=0;entryDy=0;entryPerimeter=0;exitX=1;exitY=0;exitDx=0;exitDy=0;" parent="1" source="M-paZG-Tj1EJP7v74Uxz-129" target="M-paZG-Tj1EJP7v74Uxz-113" edge="1">
          <mxGeometry width="50" height="50" relative="1" as="geometry">
            <mxPoint x="233" y="1548" as="sourcePoint" />
            <mxPoint x="283" y="1498" as="targetPoint" />
          </mxGeometry>
        </mxCell>
        <mxCell id="M-paZG-Tj1EJP7v74Uxz-138" value="" style="endArrow=classic;html=1;rounded=0;entryX=-0.002;entryY=0.875;entryDx=0;entryDy=0;entryPerimeter=0;exitX=1;exitY=0;exitDx=0;exitDy=0;" parent="1" source="M-paZG-Tj1EJP7v74Uxz-117" target="M-paZG-Tj1EJP7v74Uxz-114" edge="1">
          <mxGeometry width="50" height="50" relative="1" as="geometry">
            <mxPoint x="233" y="1548" as="sourcePoint" />
            <mxPoint x="283" y="1498" as="targetPoint" />
          </mxGeometry>
        </mxCell>
        <mxCell id="M-paZG-Tj1EJP7v74Uxz-139" value="Feedback for passenger" style="text;html=1;strokeColor=none;fillColor=none;align=center;verticalAlign=middle;whiteSpace=wrap;rounded=0;fontSize=11;rotation=-10;" parent="1" vertex="1">
          <mxGeometry x="243" y="1393" width="200" height="30" as="geometry" />
        </mxCell>
        <mxCell id="M-paZG-Tj1EJP7v74Uxz-140" value="Feedback for driver" style="text;html=1;strokeColor=none;fillColor=none;align=center;verticalAlign=middle;whiteSpace=wrap;rounded=0;fontSize=11;rotation=-30;" parent="1" vertex="1">
          <mxGeometry x="223" y="1488" width="200" height="30" as="geometry" />
        </mxCell>
        <mxCell id="M-paZG-Tj1EJP7v74Uxz-141" value="" style="endArrow=classic;html=1;rounded=0;entryX=0;entryY=0;entryDx=0;entryDy=0;exitX=1;exitY=0.5;exitDx=0;exitDy=0;" parent="1" source="M-paZG-Tj1EJP7v74Uxz-129" target="M-paZG-Tj1EJP7v74Uxz-115" edge="1">
          <mxGeometry width="50" height="50" relative="1" as="geometry">
            <mxPoint x="473" y="1578" as="sourcePoint" />
            <mxPoint x="523" y="1528" as="targetPoint" />
          </mxGeometry>
        </mxCell>
        <mxCell id="M-paZG-Tj1EJP7v74Uxz-142" value="" style="endArrow=classic;html=1;rounded=0;entryX=-0.02;entryY=0.88;entryDx=0;entryDy=0;entryPerimeter=0;exitX=1;exitY=0.75;exitDx=0;exitDy=0;" parent="1" source="M-paZG-Tj1EJP7v74Uxz-117" target="M-paZG-Tj1EJP7v74Uxz-116" edge="1">
          <mxGeometry width="50" height="50" relative="1" as="geometry">
            <mxPoint x="473" y="1578" as="sourcePoint" />
            <mxPoint x="523" y="1528" as="targetPoint" />
          </mxGeometry>
        </mxCell>
        <mxCell id="M-paZG-Tj1EJP7v74Uxz-143" value="Details of report" style="text;html=1;strokeColor=none;fillColor=none;align=center;verticalAlign=middle;whiteSpace=wrap;rounded=0;fontSize=11;rotation=30;" parent="1" vertex="1">
          <mxGeometry x="328" y="1525" width="160" height="30" as="geometry" />
        </mxCell>
        <mxCell id="M-paZG-Tj1EJP7v74Uxz-144" value="Details of report" style="text;html=1;strokeColor=none;fillColor=none;align=center;verticalAlign=middle;whiteSpace=wrap;rounded=0;fontSize=11;rotation=15;" parent="1" vertex="1">
          <mxGeometry x="269" y="1598" width="160" height="30" as="geometry" />
        </mxCell>
        <mxCell id="M-paZG-Tj1EJP7v74Uxz-145" value="" style="endArrow=classic;html=1;rounded=0;entryX=1;entryY=1;entryDx=0;entryDy=0;exitX=-0.012;exitY=0.05;exitDx=0;exitDy=0;exitPerimeter=0;" parent="1" source="M-paZG-Tj1EJP7v74Uxz-116" target="M-paZG-Tj1EJP7v74Uxz-129" edge="1">
          <mxGeometry width="50" height="50" relative="1" as="geometry">
            <mxPoint x="433" y="1578" as="sourcePoint" />
            <mxPoint x="483" y="1528" as="targetPoint" />
            <Array as="points">
              <mxPoint x="333" y="1568" />
            </Array>
          </mxGeometry>
        </mxCell>
        <mxCell id="M-paZG-Tj1EJP7v74Uxz-146" value="" style="endArrow=classic;html=1;rounded=0;entryX=0.75;entryY=1;entryDx=0;entryDy=0;exitX=0.331;exitY=1.011;exitDx=0;exitDy=0;exitPerimeter=0;" parent="1" source="M-paZG-Tj1EJP7v74Uxz-116" target="M-paZG-Tj1EJP7v74Uxz-117" edge="1">
          <mxGeometry width="50" height="50" relative="1" as="geometry">
            <mxPoint x="503" y="1658" as="sourcePoint" />
            <mxPoint x="483" y="1528" as="targetPoint" />
            <Array as="points">
              <mxPoint x="503" y="1688" />
              <mxPoint x="223" y="1688" />
            </Array>
          </mxGeometry>
        </mxCell>
        <mxCell id="M-paZG-Tj1EJP7v74Uxz-147" value="Report sumbission" style="text;html=1;strokeColor=none;fillColor=none;align=center;verticalAlign=middle;whiteSpace=wrap;rounded=0;fontSize=11;" parent="1" vertex="1">
          <mxGeometry x="273" y="1662" width="160" height="30" as="geometry" />
        </mxCell>
        <mxCell id="M-paZG-Tj1EJP7v74Uxz-148" value="Report sumbission" style="text;html=1;strokeColor=none;fillColor=none;align=center;verticalAlign=middle;whiteSpace=wrap;rounded=0;fontSize=11;rotation=20;" parent="1" vertex="1">
          <mxGeometry x="293" y="1548" width="160" height="30" as="geometry" />
        </mxCell>
        <mxCell id="M-paZG-Tj1EJP7v74Uxz-149" value="" style="endArrow=classic;html=1;rounded=0;entryX=-0.134;entryY=0.506;entryDx=0;entryDy=0;entryPerimeter=0;exitX=1.022;exitY=0.135;exitDx=0;exitDy=0;exitPerimeter=0;" parent="1" source="M-paZG-Tj1EJP7v74Uxz-113" target="M-paZG-Tj1EJP7v74Uxz-135" edge="1">
          <mxGeometry width="50" height="50" relative="1" as="geometry">
            <mxPoint x="603" y="1608" as="sourcePoint" />
            <mxPoint x="653" y="1558" as="targetPoint" />
          </mxGeometry>
        </mxCell>
        <mxCell id="M-paZG-Tj1EJP7v74Uxz-150" value="Feedback for users" style="text;html=1;strokeColor=none;fillColor=none;align=center;verticalAlign=middle;whiteSpace=wrap;rounded=0;fontSize=11;" parent="1" vertex="1">
          <mxGeometry x="673" y="1363" width="170" height="30" as="geometry" />
        </mxCell>
        <mxCell id="M-paZG-Tj1EJP7v74Uxz-153" value="" style="endArrow=classic;html=1;rounded=0;entryX=0.5;entryY=0;entryDx=0;entryDy=0;exitX=0.5;exitY=1;exitDx=0;exitDy=0;" parent="1" source="M-paZG-Tj1EJP7v74Uxz-133" target="M-paZG-Tj1EJP7v74Uxz-130" edge="1">
          <mxGeometry width="50" height="50" relative="1" as="geometry">
            <mxPoint x="853" y="1588" as="sourcePoint" />
            <mxPoint x="903" y="1538" as="targetPoint" />
          </mxGeometry>
        </mxCell>
        <mxCell id="M-paZG-Tj1EJP7v74Uxz-154" value="List of flagged accounts" style="text;whiteSpace=wrap;html=1;horizontal=0;" parent="1" vertex="1">
          <mxGeometry x="998" y="1428" width="130" height="150" as="geometry" />
        </mxCell>
        <mxCell id="M-paZG-Tj1EJP7v74Uxz-155" value="" style="endArrow=classic;html=1;rounded=0;exitX=0;exitY=0.5;exitDx=0;exitDy=0;entryX=0.513;entryY=1.074;entryDx=0;entryDy=0;entryPerimeter=0;" parent="1" source="M-paZG-Tj1EJP7v74Uxz-130" target="M-paZG-Tj1EJP7v74Uxz-132" edge="1">
          <mxGeometry width="50" height="50" relative="1" as="geometry">
            <mxPoint x="823" y="1588" as="sourcePoint" />
            <mxPoint x="873" y="1538" as="targetPoint" />
            <Array as="points">
              <mxPoint x="820" y="1628" />
            </Array>
          </mxGeometry>
        </mxCell>
        <mxCell id="M-paZG-Tj1EJP7v74Uxz-156" value="Outcome of report" style="text;whiteSpace=wrap;html=1;" parent="1" vertex="1">
          <mxGeometry x="843" y="1598" width="130" height="40" as="geometry" />
        </mxCell>
        <mxCell id="rJ6mLgp1E9CrwzA49-hS-1" value="Payment&amp;nbsp; Datastore&amp;nbsp; &amp;nbsp;" style="rounded=0;whiteSpace=wrap;html=1;align=right;" vertex="1" parent="1">
          <mxGeometry x="371" y="1233" width="190" height="40.19" as="geometry" />
        </mxCell>
        <mxCell id="rJ6mLgp1E9CrwzA49-hS-2" value="" style="endArrow=none;html=1;rounded=0;exitX=0.25;exitY=1;exitDx=0;exitDy=0;entryX=0.25;entryY=0;entryDx=0;entryDy=0;" edge="1" parent="1" source="rJ6mLgp1E9CrwzA49-hS-1" target="rJ6mLgp1E9CrwzA49-hS-1">
          <mxGeometry width="50" height="50" relative="1" as="geometry">
            <mxPoint x="316" y="1453.19" as="sourcePoint" />
            <mxPoint x="366" y="1403.19" as="targetPoint" />
            <Array as="points" />
          </mxGeometry>
        </mxCell>
        <mxCell id="rJ6mLgp1E9CrwzA49-hS-3" value="D3" style="text;html=1;align=center;verticalAlign=middle;resizable=0;points=[];autosize=1;strokeColor=none;fillColor=none;" vertex="1" parent="1">
          <mxGeometry x="376" y="1238.1000000000001" width="40" height="30" as="geometry" />
        </mxCell>
        <mxCell id="rJ6mLgp1E9CrwzA49-hS-4" value="" style="endArrow=classic;html=1;rounded=0;exitX=0.523;exitY=1.04;exitDx=0;exitDy=0;exitPerimeter=0;" edge="1" parent="1" source="M-paZG-Tj1EJP7v74Uxz-92">
          <mxGeometry width="50" height="50" relative="1" as="geometry">
            <mxPoint x="550" y="1230" as="sourcePoint" />
            <mxPoint x="370" y="1250" as="targetPoint" />
            <Array as="points">
              <mxPoint x="200" y="1250" />
            </Array>
          </mxGeometry>
        </mxCell>
        <mxCell id="rJ6mLgp1E9CrwzA49-hS-5" value="Payment details" style="text;html=1;strokeColor=none;fillColor=none;align=center;verticalAlign=middle;whiteSpace=wrap;rounded=0;fontSize=11;" vertex="1" parent="1">
          <mxGeometry x="200" y="1230" width="160" height="25" as="geometry" />
        </mxCell>
        <mxCell id="rJ6mLgp1E9CrwzA49-hS-7" value="" style="endArrow=classic;html=1;rounded=0;exitX=1;exitY=0.5;exitDx=0;exitDy=0;entryX=0.337;entryY=0.98;entryDx=0;entryDy=0;entryPerimeter=0;" edge="1" parent="1" source="rJ6mLgp1E9CrwzA49-hS-1" target="M-paZG-Tj1EJP7v74Uxz-94">
          <mxGeometry width="50" height="50" relative="1" as="geometry">
            <mxPoint x="550" y="1230" as="sourcePoint" />
            <mxPoint x="600" y="1180" as="targetPoint" />
            <Array as="points">
              <mxPoint x="721" y="1253" />
            </Array>
          </mxGeometry>
        </mxCell>
        <mxCell id="rJ6mLgp1E9CrwzA49-hS-8" value="Payment information" style="text;html=1;strokeColor=none;fillColor=none;align=center;verticalAlign=middle;whiteSpace=wrap;rounded=0;fontSize=11;" vertex="1" parent="1">
          <mxGeometry x="550" y="1230" width="160" height="25" as="geometry" />
        </mxCell>
      </root>
    </mxGraphModel>
  </diagram>
</mxfile>
